# xmcd
#
# Track frame offsets:
#	183
#	10953
#	23005
#	34035
#	42813
#	54675
#	67575
#	77870
#	90295
#	103260
#	116703
#	130303
#	142845
#	162490
#	174420
#	188740
#
# Disc length: 2645 seconds
#
# Revision: 0
# Processed by: cddbd v1.4PL0 Copyright (c) Steve Scherf et al.
# Submitted via: audiograbber 1.80
#
DISCID=c70a5310
DTITLE=Billy Jo Spears - Country Favourites
DYEAR=1900
DGENRE=
TTITLE0=I'm So Lonesome I Could Cry
TTITLE1=Look what They've Done To My Song Ma
TTITLE2=If It Ain't Love
TTITLE3=You're My Man
TTITLE4=Ease The Want In Me
TTITLE5=Dallas
TTITLE6=It Makes No Difference Now
TTITLE7=Sunshine
TTITLE8=He's On The Run Again
TTITLE9=Fever
TTITLE10=One More Chance
TTITLE11=The Cheatin' Kind
TTITLE12=I'll Tak A Melody
TTITLE13=My Own Kind
TTITLE14=I'll Never Be Free
TTITLE15=Danny
EXTD=
EXTT0=
EXTT1=
EXTT2=
EXTT3=
EXTT4=
EXTT5=
EXTT6=
EXTT7=
EXTT8=
EXTT9=
EXTT10=
EXTT11=
EXTT12=
EXTT13=
EXTT14=
EXTT15=
PLAYORDER=
